# xmcd
#
# Track frame offsets: 
#        150
#        39075
#        61200
#        93942
#        114547
#        144090
#        163180
#
# Disc length: 2448 seconds
#
# Revision: 3
# Processed by: cddbd v1.5.2PL0 Copyright (c) Steve Scherf et al.
# Submitted via: ExactAudioCopyFreeDBPlugin 1.0
#
DISCID=4e098e07
DTITLE=Jimmy Smith - at The Organ
DYEAR=1900
DGENRE=Jazz
TTITLE0=The champ
TTITLE1=Bayou
TTITLE2=Deep purple
TTITLE3=Moonlight in vermont
TTITLE4=Ready'n able
TTITLE5=Turquoise
TTITLE6=Bubbis
EXTD=
EXTT0=
EXTT1=
EXTT2=
EXTT3=
EXTT4=
EXTT5=
EXTT6=
PLAYORDER=
